<?xml version="1.0"?>
<!-- Generated by SVGo -->
<svg width="800" height="180"
     font-family="-apple-system,BlinkMacSystemFont,Segoe UI,Helvetica,Arial,sans-serif,Apple Color Emoji,Segoe UI Emoji"
     xmlns="http://www.w3.org/2000/svg"
     xmlns:xlink="http://www.w3.org/1999/xlink">
<rect x="0" y="0" width="800" height="180" fill="white" />
<text x="120" y="25" dominant-baseline="central" font-size="1.2em" fill="#1b1e23" >Peak Memory Usage [MB]</text>
<rect x="120" y="50" width="102" height="20" fill="steelblue" />
<text x="218" y="60" text-anchor="end" dominant-baseline="central" fill="white" >6.21</text>
<text x="110" y="60" text-anchor="end" dominant-baseline="central" fill="#1b1e23" >rust_actix</text>
<line x1="113" y1="60" x2="120" y2="60" stroke="#1b1e23" />
<rect x="120" y="72" width="191" height="20" fill="steelblue" />
<text x="307" y="82" text-anchor="end" dominant-baseline="central" fill="white" >11.67</text>
<text x="110" y="82" text-anchor="end" dominant-baseline="central" fill="#1b1e23" >go_fasthttp</text>
<line x1="113" y1="82" x2="120" y2="82" stroke="#1b1e23" />
<rect x="120" y="94" width="223" height="20" fill="steelblue" />
<text x="339" y="104" text-anchor="end" dominant-baseline="central" fill="white" >13.63</text>
<text x="110" y="104" text-anchor="end" dominant-baseline="central" fill="#1b1e23" >go_std</text>
<line x1="113" y1="104" x2="120" y2="104" stroke="#1b1e23" />
<rect x="120" y="116" width="512" height="20" fill="steelblue" />
<text x="628" y="126" text-anchor="end" dominant-baseline="central" fill="white" >31.30</text>
<text x="110" y="126" text-anchor="end" dominant-baseline="central" fill="#1b1e23" >node_fastify</text>
<line x1="113" y1="126" x2="120" y2="126" stroke="#1b1e23" />
<rect x="120" y="138" width="640" height="20" fill="steelblue" />
<text x="756" y="148" text-anchor="end" dominant-baseline="central" fill="white" >39.14</text>
<text x="110" y="148" text-anchor="end" dominant-baseline="central" fill="#1b1e23" >node_express</text>
<line x1="113" y1="148" x2="120" y2="148" stroke="#1b1e23" />
<line x1="120" y1="48" x2="120" y2="160" stroke="#1b1e23" />
</svg>
