<?xml version="1.0"?>
<!-- Generated by SVGo -->
<svg width="800" height="180"
     font-family="-apple-system,BlinkMacSystemFont,Segoe UI,Helvetica,Arial,sans-serif,Apple Color Emoji,Segoe UI Emoji"
     xmlns="http://www.w3.org/2000/svg"
     xmlns:xlink="http://www.w3.org/1999/xlink">
<rect x="0" y="0" width="800" height="180" fill="white" />
<text x="120" y="25" dominant-baseline="central" font-size="1.2em" fill="#1b1e23" >Throughput [reqs/sec]</text>
<rect x="120" y="50" width="640" height="20" fill="steelblue" />
<text x="756" y="60" text-anchor="end" dominant-baseline="central" fill="white" >13277</text>
<text x="110" y="60" text-anchor="end" dominant-baseline="central" fill="#1b1e23" >rust_actix</text>
<line x1="113" y1="60" x2="120" y2="60" stroke="#1b1e23" />
<rect x="120" y="72" width="534" height="20" fill="steelblue" />
<text x="650" y="82" text-anchor="end" dominant-baseline="central" fill="white" >11085</text>
<text x="110" y="82" text-anchor="end" dominant-baseline="central" fill="#1b1e23" >go_fasthttp</text>
<line x1="113" y1="82" x2="120" y2="82" stroke="#1b1e23" />
<rect x="120" y="94" width="439" height="20" fill="steelblue" />
<text x="555" y="104" text-anchor="end" dominant-baseline="central" fill="white" >9114</text>
<text x="110" y="104" text-anchor="end" dominant-baseline="central" fill="#1b1e23" >go_std</text>
<line x1="113" y1="104" x2="120" y2="104" stroke="#1b1e23" />
<rect x="120" y="116" width="192" height="20" fill="steelblue" />
<text x="308" y="126" text-anchor="end" dominant-baseline="central" fill="white" >3986</text>
<text x="110" y="126" text-anchor="end" dominant-baseline="central" fill="#1b1e23" >node_fastify</text>
<line x1="113" y1="126" x2="120" y2="126" stroke="#1b1e23" />
<rect x="120" y="138" width="83" height="20" fill="steelblue" />
<text x="199" y="148" text-anchor="end" dominant-baseline="central" fill="white" >1725</text>
<text x="110" y="148" text-anchor="end" dominant-baseline="central" fill="#1b1e23" >node_express</text>
<line x1="113" y1="148" x2="120" y2="148" stroke="#1b1e23" />
<line x1="120" y1="48" x2="120" y2="160" stroke="#1b1e23" />
</svg>
